<svg width="200" height="200" viewBox="0 0 200 200" version="1.1" xmlns="http://www.w3.org/2000/svg" xmlns:xlink="http://www.w3.org/1999/xlink"><g class="transform-group"><g transform="scale(0.1953125, 0.1953125)"><path d="M512 1024C228.266667 1024 0 795.733333 0 512 0 228.266667 228.266667 0 512 0s512 228.266667 512 512C1024 795.733333 795.733333 1024 512 1024zM768 341.333333c-12.8 0-23.466667 4.266667-29.866667 12.8L426.666667 665.6l-140.8-140.8C279.466667 516.266667 268.8 512 256 512c-23.466667 0-42.666667 19.2-42.666667 42.666667 0 12.8 4.266667 23.466667 12.8 29.866667l170.666667 170.666667c8.533333 8.533333 19.2 12.8 29.866667 12.8s23.466667-4.266667 29.866667-12.8l341.333333-341.333333c8.533333-8.533333 12.8-19.2 12.8-29.866667C810.666667 360.533333 791.466667 341.333333 768 341.333333z" fill="#11cd6e"></path></g></g></svg>