<svg width="200" height="200" viewBox="0 0 200 200" version="1.1" xmlns="http://www.w3.org/2000/svg" xmlns:xlink="http://www.w3.org/1999/xlink"><g class="transform-group"><g transform="scale(0.1953125, 0.1953125)"><path d="M512 1024C228.266667 1024 0 795.733333 0 512S228.266667 0 512 0s512 228.266667 512 512S795.733333 1024 512 1024zM576 234.666667c0-36.266667-27.733333-64-64-64s-64 27.733333-64 64l0 341.333333c0 36.266667 27.733333 64 64 64s64-27.733333 64-64L576 234.666667zM512 725.333333c-36.266667 0-64 27.733333-64 64s27.733333 64 64 64 64-27.733333 64-64S548.266667 725.333333 512 725.333333z" fill="#eb4f38"></path></g></g></svg>