<svg  viewBox="0 0 200 200" version="1.1" xmlns="http://www.w3.org/2000/svg" xmlns:xlink="http://www.w3.org/1999/xlink"><g class="transform-group"><g transform="scale(0.1953125, 0.1953125)"><path d="M512 1024C228.266667 1024 0 795.733333 0 512 0 228.266667 228.266667 0 512 0s512 228.266667 512 512C1024 795.733333 795.733333 1024 512 1024zM755.2 326.4c17.066667-17.066667 17.066667-42.666667 0-59.733333-17.066667-17.066667-42.666667-17.066667-59.733333 0L512 452.266667l-185.6-185.6c-17.066667-17.066667-42.666667-17.066667-59.733333 0-17.066667 17.066667-17.066667 42.666667 0 59.733333l185.6 185.6-185.6 185.6c-17.066667 17.066667-17.066667 42.666667 0 59.733333 17.066667 17.066667 42.666667 17.066667 59.733333 0l185.6-185.6 185.6 185.6c17.066667 17.066667 42.666667 17.066667 59.733333 0 17.066667-17.066667 17.066667-42.666667 0-59.733333L571.733333 512 755.2 326.4z" fill="#eb4f38"></path></g></g></svg>